<svg width="965" height="130" viewBox="0 0 965 130" fill="none" xmlns="http://www.w3.org/2000/svg">
<path d="M214.045 129.636H244.231L232.713 87.6186C239.008 87.3487 245.316 87.4258 251.599 87.8538L255.755 64.21C221.448 61.4277 186.965 67.7809 155.945 82.8864L189.23 28.7042L196.849 60.4017C205.734 58.3406 214.857 56.8957 224.167 56.1132L208.859 0H177.374L96.4463 129.636H128.558C150.07 110.631 176.472 97.0347 205.638 90.9808C208.111 103.738 210.931 117.188 214.045 129.636V129.636Z" fill="white"/>
<path d="M813.326 16.8092C808.243 10.5717 802.61 6.21057 796.43 3.72648C790.249 1.24239 782.537 0 773.293 0C759.893 0 747.992 3.11944 737.593 9.35973C727.196 15.5972 720.956 24.4369 718.877 35.8725C717.837 42.5755 718.185 48.3807 719.917 53.2894C721.648 58.2003 724.652 62.0711 728.928 64.9025C733.202 67.7319 737.825 69.8686 742.793 71.3127C747.759 72.7574 753.594 73.8845 760.295 74.6946C767.922 75.6165 773.468 77.0612 776.934 79.0253C780.398 80.9894 782.132 83.9935 782.132 88.0369C782.132 93.235 779.618 97.3386 774.592 100.343C769.567 103.347 763.069 104.849 755.097 104.849C748.512 104.849 742.099 103.489 735.861 100.775C729.62 98.061 724.77 93.9878 721.303 88.5569L703.972 108.835C708.133 115.65 714.429 120.848 722.863 124.432C731.297 128.013 740.539 129.745 750.591 129.63C761.452 129.515 771.098 128.071 779.533 125.297C787.968 122.525 795.015 117.702 800.676 110.827C806.336 103.952 809.168 95.3173 809.168 84.9182C809.168 77.6386 807.204 71.4881 803.275 66.4619C799.346 61.4364 794.523 57.8253 788.805 55.6306C783.084 53.4344 776.414 51.9897 768.787 51.2977C760.7 50.6051 754.722 49.4207 750.851 47.7439C746.979 46.0692 745.045 43.0955 745.045 38.8193C745.045 34.1985 747.414 30.472 752.15 27.6405C756.889 24.8119 762.607 23.3947 769.307 23.3947C774.39 23.3947 779.301 24.2041 784.039 25.8215C788.775 27.441 792.471 29.865 795.131 33.1012L813.326 16.8092V16.8092Z" fill="white"/>
<path d="M687.541 102.967H617.166L621.795 76.856H685.687L690.134 51.4823H626.241L630.686 26.4821H698.466L703.097 0H606.981L584.2 129.636H682.91L687.541 102.967Z" fill="white"/>
<path d="M423.403 129.636L446.181 0H417.477L394.696 129.636H423.403Z" fill="white"/>
<path d="M370.589 125.408L344.369 84.4484C357.458 80.0043 367.057 73.9527 373.166 66.299C379.28 58.6446 382.335 48.9532 382.335 37.2236C382.335 26.6053 378.785 17.7465 371.687 10.6477C364.586 3.54975 354.433 0 341.22 0H279.737L256.957 129.636H285.848L293.44 87.0417H314.923L340.481 129.636H373.407L370.589 125.408ZM336.961 24.8158C342.393 24.8158 346.468 26.4821 349.185 29.8148C351.9 33.1483 353.26 37.1003 353.26 41.6678C353.26 46.8536 351.222 51.6373 347.147 56.0195C343.074 60.4047 337.58 62.5943 330.666 62.5943H297.7L304.369 24.8158H336.961Z" fill="white"/>
<path d="M524.767 92.9678C542.916 92.9678 557.239 87.72 567.732 77.2242C578.228 66.7315 583.476 53.9524 583.476 38.8899C583.476 27.5315 579.862 18.2085 572.64 10.926C565.416 3.64053 554.892 0 541.065 0H479.951L457.17 129.636H486.061L492.543 92.9678H524.767V92.9678ZM504.026 27.4091H536.251C541.928 27.4091 546.311 28.9817 549.398 32.1307C552.485 35.279 554.029 39.1999 554.029 43.8891C554.029 49.9414 551.807 55.218 547.36 59.7234C542.916 64.2319 536.929 66.4827 529.398 66.4827H497.173L504.026 27.4091V27.4091Z" fill="white"/>
<path d="M67.5963 92.9678C85.7458 92.9678 100.069 87.72 110.562 77.2242C121.057 66.7315 126.304 53.9524 126.304 38.8899C126.304 27.5315 122.691 18.2085 115.47 10.926C108.246 3.64053 97.7212 0 83.8949 0H22.7803L0 129.636H28.8909L35.3719 92.9678H67.5963ZM46.8559 27.4091H79.0795C84.7576 27.4091 89.1398 28.9817 92.2276 32.1307C95.3146 35.279 96.8585 39.1999 96.8585 43.8891C96.8585 49.9414 94.6364 55.218 90.19 59.7234C85.7458 64.2319 79.7585 66.4827 72.2273 66.4827H40.0028L46.8559 27.4091V27.4091Z" fill="white"/>
<path d="M923.289 129.636H953.476L941.957 87.6186C948.252 87.3487 954.56 87.4258 960.844 87.8538L965 64.21C930.692 61.4277 896.209 67.7809 865.19 82.8864L898.474 28.7042L906.093 60.4017C914.979 58.3406 924.102 56.8957 933.411 56.1132L918.103 0H886.619L805.69 129.636H837.802C859.315 110.631 885.717 97.0347 914.882 90.9808C917.355 103.738 920.175 117.188 923.289 129.636V129.636Z" fill="white"/>
</svg>
